<svg xmlns="http://www.w3.org/2000/svg" version="1.1" xmlns:xlink="http://www.w3.org/1999/xlink" xmlns:svgjs="http://svgjs.dev/svgjs" width="1080" height="2000" preserveAspectRatio="none" viewBox="0 0 1080 2000"><g mask="url(&quot;#SvgjsMask1023&quot;)" fill="none"><rect width="1080" height="2000" x="0" y="0" fill="#0e2a47"></rect><path d="M0,907.099C165.729,887.571,263.34,718.045,408.034,634.913C563.237,545.743,800.696,562.363,879.636,401.716C958.218,241.798,799.886,65.008,774.761,-111.394C749.59,-288.121,834.099,-487.863,732.069,-634.342C628.982,-782.338,430.362,-829.411,252.755,-860.806C87.786,-889.967,-85.027,-877.046,-236.533,-805.556C-376.439,-739.539,-441.752,-586.485,-554.062,-480.098C-682.512,-358.423,-915.236,-310.309,-943.702,-135.684C-972.054,38.245,-766.436,156.679,-683.183,311.999C-606.829,454.448,-596.763,632.79,-474.893,738.947C-345.651,851.526,-170.221,927.156,0,907.099" fill="#0b2137"></path><path d="M1080 2511.465C1181.491 2508.554 1297.5819999999999 2524.0280000000002 1373.3020000000001 2456.386 1448.406 2389.295 1434.1190000000001 2270.642 1458.864 2173.022 1478.798 2094.383 1496.912 2019.746 1504.4569999999999 1938.972 1514.312 1833.467 1567.412 1716.508 1509.812 1627.566 1452.574 1539.183 1327.412 1530.431 1224.741 1507.057 1127.566 1484.934 1021.164 1451.462 932.019 1496.0230000000001 844.962 1539.54 832.415 1656.824 772.184 1733.276 715.852 1804.779 614.943 1841.9470000000001 590.425 1929.61 565.187 2019.845 611.376 2111.523 641.585 2200.218 674.979 2298.263 691.2239999999999 2413.57 775.681 2473.529 860.759 2533.929 975.705 2514.457 1080 2511.465" fill="#113357"></path></g><defs><mask id="SvgjsMask1023"><rect width="1080" height="2000" fill="#ffffff"></rect></mask></defs></svg>